<svg viewBox="0 0 14 14" data-chromatic="ignore" class="css-149xqrd" style="position: absolute; width: 0px; height: 0px;"><symbol id="icon--folder"><path fill-rule="evenodd" d="M6.59 3.5 5.09 2H1v9h12V3.5H6.59Zm.41-1L5.8 1.3a1 1 0 0 0-.71-.3H.5a.5.5 0 0 0-.5.5v10c0 .28.22.5.5.5h13a.5.5 0 0 0 .5-.5V3a.5.5 0 0 0-.5-.5H7Z"></path></symbol><symbol id="icon--component"><path fill-rule="evenodd" d="M3.5 1A2.5 2.5 0 0 0 1 3.5v7A2.5 2.5 0 0 0 3.5 13h7a2.5 2.5 0 0 0 2.5-2.5v-7A2.5 2.5 0 0 0 10.5 1h-7ZM12 6.5H7.5V2h3c.83 0 1.5.68 1.5 1.5v3Zm0 1v3c0 .83-.67 1.5-1.5 1.5h-3V7.5H12ZM6.5 12V7.5H2v3c0 .83.67 1.5 1.5 1.5h3ZM2 6.5h4.5V2h-3C2.67 2 2 2.68 2 3.5v3Z"></path></symbol><symbol id="icon--document"><path d="M4 5.5c0-.28.22-.5.5-.5h5a.5.5 0 0 1 0 1h-5a.5.5 0 0 1-.5-.5ZM4.5 7.5a.5.5 0 0 0 0 1h5a.5.5 0 0 0 0-1h-5ZM4 10.5c0-.28.22-.5.5-.5h5a.5.5 0 0 1 0 1h-5a.5.5 0 0 1-.5-.5Z"></path><path fill-rule="evenodd" d="M1.5 0a.5.5 0 0 0-.5.5v13c0 .28.22.5.5.5h11a.5.5 0 0 0 .5-.5V3.2a.5.5 0 0 0-.15-.35l-2.7-2.7A.5.5 0 0 0 9.79 0H1.5ZM2 1h7.5v2c0 .28.22.5.5.5h2V13H2V1Z"></path></symbol><symbol id="icon--bookmarkhollow"><path fill-rule="evenodd" d="M3.5 0h7c.28 0 .5.22.5.5v13a.5.5 0 0 1-.45.5.46.46 0 0 1-.38-.12L7 11.16l-3.17 2.72a.46.46 0 0 1-.38.12.5.5 0 0 1-.45-.5V.5c0-.28.22-.5.5-.5ZM4 12.41l2.66-2.28a.45.45 0 0 1 .38-.13c.1.01.2.05.29.12l2.67 2.3V1H4v11.41Z"></path></symbol></svg>